<svg width="350" height="350" viewBox="280 256 350 350" fill="none" xmlns="http://www.w3.org/2000/svg">
<rect x="280" y="256" width="350" height="350" rx="50" fill="#FFD7F7"/>
<path d="M594.168 369.5C594.168 398.771 579.668 467.5 510.668 470C467.668 467.5 427.424 426.297 462.168 372.5C477.668 348.5 527.667 342 552.168 282C577.668 301.5 594.168 331 594.168 369.5Z" fill="#45994B"/>
<path d="M487.841 452.723C488.505 450.306 490.855 448.753 493.339 449.092L494.773 449.287C497.614 449.675 499.547 452.366 499.009 455.181L489.913 502.73C489.404 505.387 486.876 507.157 484.205 506.727L478.999 505.887C476.063 505.413 474.187 502.496 474.974 499.628L487.841 452.723Z" fill="#45994B"/>
<path d="M553.5 341.5C553.5 341.5 544 381.5 520 402C496 422.5 484.5 464.5 484.5 464.5L467.5 454.5C467.5 454.5 476.5 420 505.5 399.5C534.5 379 553.5 341.5 553.5 341.5Z" fill="#FFD7F7"/>
<ellipse cx="334.5" cy="575.5" rx="15.5" ry="7.5" fill="#F096D3"/>
<ellipse cx="365.5" cy="560.5" rx="15.5" ry="7.5" fill="#F096D3"/>
<ellipse cx="427.5" cy="530.5" rx="15.5" ry="7.5" fill="#F096D3"/>
<ellipse cx="396.5" cy="545.5" rx="15.5" ry="7.5" fill="#F096D3"/>
<ellipse cx="458.5" cy="515.5" rx="15.5" ry="7.5" fill="#F096D3"/>
</svg>
