<svg width="200" height="200" viewBox="0 0 200 200" fill="none" xmlns="http://www.w3.org/2000/svg">
<circle cx="100" cy="100" r="100" fill="#F3E444"/>
<path d="M84.5 137C84.5 149.703 67.7025 163.5 55 163.5C42.2975 163.5 36 149.703 36 137C36 124.297 47.7975 112.5 60.5 112.5C73.2025 112.5 84.5 124.297 84.5 137Z" fill="white"/>
<path d="M128 134C128 142.837 114.569 150 98 150C81.4315 150 68 142.837 68 134C68 125.163 81.4315 116.5 98 116.5C114.569 116.5 128 125.163 128 134Z" fill="white"/>
<path d="M148 158C148 163.799 120.196 167 97 167C73.804 167 46 165.299 46 159.5C46 153.701 73.804 146 97 146C120.196 146 148 152.201 148 158Z" fill="white"/>
<path d="M146.876 100.5C146.876 118.725 138.989 139.5 129.876 139.5C120.764 139.5 122.876 119.725 122.876 101.5C121.377 79.5 111.764 66 120.876 66C129.989 66 146.876 82.2746 146.876 100.5Z" fill="white"/>
<path d="M163 117C163 126.665 163.598 141.5 152 141.5C140.402 141.5 124 116.165 124 106.5C124 96.835 117.902 61 129.5 61C141.098 61 163 107.335 163 117Z" fill="white"/>
<path d="M159 150.5C159 156.023 146.15 163 134 163C121.85 163 113 154.523 113 149C113 143.477 139.85 119.5 152 119.5C164.15 119.5 159 144.977 159 150.5Z" fill="white"/>
<path d="M142 73C142 80.7319 123.941 71 114 71C104.059 71 91 68.732 91 61C93.0013 50.7554 105.638 33.0173 114 35C124.517 34.1263 142.642 64.2934 142 73Z" fill="white"/>
<path d="M121 49.5C121 54.1944 112.008 64 104 64C95.9919 64 91 54.1944 91 49.5C91 44.8056 104.492 34 112.5 34C120.508 34 121 44.8056 121 49.5Z" fill="white"/>
</svg>
